<?xml version="1.0" encoding="UTF-8"?>
<svg width="199px" height="50px" viewBox="0 0 199 50" version="1.1" xmlns="http://www.w3.org/2000/svg" xmlns:xlink="http://www.w3.org/1999/xlink">
    <title>image4white</title>
    <g id="页面-2" stroke="none" stroke-width="1" fill="none" fill-rule="evenodd">
        <g id="image4white" transform="translate(0.000000, 0.050000)" fill="#FFFFFF" fill-rule="nonzero">
            <path d="M112.3,16.2 C112.3,10.4 112.4,5 112.7,0 L97.4,2.9 L97.4,4.3 L98.9,4.5 C100,4.6 100.7,5 101.1,5.6 C101.5,6.3 101.8,7.3 102,8.8 C102.2,11.7 102.4,18.3 102.3,28.7 C102.3,39 102.2,45.5 102,48 C107.5,49.2 111.8,49.7 115,49.7 C121,49.7 125.7,48 129.1,44.5 C132.5,41.1 134.3,36.3 134.3,30.4 C134.3,25.7 133,21.8 130.4,18.7 C127.8,15.6 124.5,14.1 120.6,14.1 C118,14.1 115.3,14.8 112.3,16.2 L112.3,16.2 Z M112.6,47 C112.4,43.8 112.2,34.2 112.2,18.5 C113.1,18.2 114.3,18 115.8,18 C118.2,18 120.1,19.2 121.5,21.7 C122.9,24.2 123.6,27.2 123.6,31 C123.6,35.7 122.8,39.5 121.2,42.7 C119.6,45.8 117.6,47.4 115.1,47.4 C114.3,47.2 113.5,47.1 112.6,47 L112.6,47 Z M40,1 L0,1 L0,3 L2.1,3.2 C3.7,3.5 4.8,4.1 5.5,5 C6.2,6 6.6,7.6 6.7,9.8 C7.5,20.6 7.5,30.7 6.7,40 C6.5,42.2 6.1,43.8 5.5,44.8 C4.8,45.8 3.7,46.4 2.1,46.6 L0,46.9 L0,48.9 L25.8,48.9 L25.8,46.9 L23.1,46.7 C21.5,46.5 20.4,45.8 19.7,44.9 C19,43.9 18.6,42.3 18.5,40.1 C18.2,36.1 18,31.5 18,26.4 L23.4,26.5 C26.3,26.6 28.3,28.8 29.3,33.2 L31.3,33.2 L31.3,16.9 L29.3,16.9 C28.3,21.2 26.4,23.4 23.4,23.5 L18,23.6 C18,14.6 18.2,8.2 18.5,4.3 L26.4,4.3 C32,4.3 35.8,7.9 38,15.1 L40.4,14.4 L40,1 Z M35.3,31.8 C35.3,37 36.8,41.3 39.7,44.7 C42.6,48.1 46.9,49.7 52.3,49.7 C57.7,49.7 62.1,48 65.3,44.5 C68.5,41.1 70,36.8 70,31.6 C70,26.4 68.5,22.1 65.6,18.7 C62.7,15.3 58.4,13.7 53,13.7 C47.6,13.7 43.2,15.4 40,18.9 C36.8,22.3 35.3,26.6 35.3,31.8 Z M57.6,20.4 C58.8,23.3 59.3,27.1 59.3,31.7 C59.3,42.3 57.1,47.5 52.8,47.5 C50.6,47.5 48.9,46 47.7,43 C46.5,40 46,36.2 46,31.7 C46,21.2 48.2,16 52.5,16 C54.7,15.9 56.4,17.4 57.6,20.4 L57.6,20.4 Z M142.1,44.7 C145.4,48 149.6,49.7 154.6,49.7 C157.7,49.7 160.4,49.1 162.8,47.8 C165.2,46.6 167.1,45.1 168.4,43.3 L167.4,42.1 C165.2,43.8 162.7,44.6 159.8,44.6 C155.8,44.6 152.7,43.3 150.6,40.6 C148.4,37.9 147.4,34.5 147.6,30.1 L169,30.1 C169,25.3 167.8,21.4 165.3,18.3 C162.8,15.3 159.3,13.8 154.8,13.8 C149.2,13.8 144.9,15.6 141.8,19.1 C138.7,22.6 137.2,26.9 137.2,32 C137.2,37.2 138.8,41.4 142.1,44.7 L142.1,44.7 Z M149.5,19.6 C150.6,17.2 152,16 153.9,16 C156.9,16 158.4,19.8 158.4,27.5 L147.8,27.7 C147.9,24.7 148.4,22 149.5,19.6 Z M195.9,15.6 C193.2,14.4 189.8,13.7 185.7,13.7 C181.5,13.7 178.2,14.8 175.7,16.9 C173.2,19 171.9,21.6 171.9,24.7 C171.9,27.4 172.7,29.5 174.2,31 C175.7,32.5 178.1,33.8 181.2,34.9 C184,35.9 186,36.9 187,37.8 C188,38.8 188.6,39.9 188.6,41.4 C188.6,42.8 188.1,44.1 187,45.1 C186,46.2 184.6,46.7 182.8,46.7 C178.4,46.7 175.1,43.5 172.8,37.1 L171.1,37.6 L171.5,47.6 C175.1,49 179.1,49.7 183.5,49.7 C188.1,49.7 191.6,48.7 194.2,46.6 C196.8,44.6 198.1,41.7 198.1,38.1 C198.1,35.7 197.5,33.7 196.2,32.2 C194.9,30.7 192.8,29.4 189.8,28.2 C186.5,27 184.2,25.9 183,24.9 C181.8,23.9 181.2,22.7 181.2,21.2 C181.2,19.7 181.6,18.5 182.5,17.5 C183.4,16.5 184.5,16.1 185.9,16.1 C189.9,16.1 192.8,19 194.6,24.7 L196.3,24.2 L195.9,15.6 Z M99.7,14.7 C98.3,14 96.8,13.7 95.1,13.7 C93.4,13.7 91.7,14.4 89.8,15.8 C87.9,17.2 86.5,19.1 85.4,21.7 L85.5,13.7 L70.3,16.7 L70.3,18.1 L71.8,18.2 C73.7,18.4 74.8,19.9 75,22.6 C75.6,28.8 75.6,35.4 75,42.4 C74.8,45.1 73.7,46.5 71.8,46.8 L70.3,47 L70.3,48.9 L91.5,48.9 L91.5,47 L88.8,46.8 C86.9,46.6 85.8,45.1 85.6,42.4 C85,36.6 84.9,30.4 85.4,24 C86,23 87.3,22.4 89.3,22.2 C91.3,22 93.6,22.6 96,24 L99.7,14.7 Z" id="形状"></path>
        </g>
    </g>
</svg>