<?xml version="1.0" encoding="UTF-8"?>
<svg width="90px" height="21px" viewBox="0 0 90 21" version="1.1" xmlns="http://www.w3.org/2000/svg" xmlns:xlink="http://www.w3.org/1999/xlink">
    <title>image1white</title>
    <g id="页面-2" stroke="none" stroke-width="1" fill="none" fill-rule="evenodd">
        <g id="image1white" fill="#FFFFFF" fill-rule="nonzero">
            <path d="M11.5,4.7499999 L11.5,15.9499999 C11.5,18.5733524 13.6266475,20.6999998 16.25,20.6999998 C18.8733525,20.6999998 21,18.5733524 21,15.9499999 L21,4.7499999 C21,2.12664738 18.8733525,8.04911693e-16 16.25,8.04911693e-16 C13.6266475,8.04911693e-16 11.5,2.12664738 11.5,4.7499999 M14.9,15.9499999 L14.9,4.7499999 C14.8958525,4.38619653 15.0455242,4.03755713 15.3121343,3.78999064 C15.5787443,3.54242415 15.9375002,3.41895225 16.3,3.4499999 C16.6481051,3.43876183 16.985335,3.57211358 17.2316106,3.81838927 C17.4778863,4.06466495 17.6112381,4.40189484 17.6,4.7499999 L17.6,15.9499999 C17.5892692,16.663478 17.0134781,17.2392691 16.3,17.2499999 C15.9418916,17.2635091 15.5931062,17.1340793 15.3305,16.8902307 C15.0678938,16.6463821 14.913018,16.3081265 14.9,15.9499999 M48.4,0.2499999 L38.8,0.2499999 L38.8,3.6499999 L41.9,3.6499999 L41.9,20.3499999 L45.3,20.3499999 L45.3,3.6499999 L48.4,3.6499999 L48.4,0.2499999 Z M58.4,0.2499999 L58.4,15.9499999 C58.4,16.6679701 57.8179702,17.2499999 57.1,17.2499999 C56.3820298,17.2499999 55.8,16.6679701 55.8,15.9499999 L55.8,0.2499999 L52.3,0.2499999 L52.3,15.9499999 C52.3,18.6009667 54.4490332,20.7499999 57.1,20.7499999 C59.7509668,20.7499999 61.9,18.6009667 61.9,15.9499999 L61.9,0.2499999 L58.4,0.2499999 Z M89.5,3.6499999 L89.5,0.2499999 L81.1,0.2499999 L81.1,20.3499999 L89.5,20.3499999 L89.5,16.9499999 L84.5,16.9499999 L84.5,11.7499999 L87.7,11.7499999 L87.7,8.3499999 L84.5,8.3499999 L84.5,3.6499999 L89.5,3.6499999 Z M35.6,20.3499999 L32,20.3499999 L29.5,10.8499999 C30.7867451,10.5953912 31.7105337,9.46165059 31.7,8.1499999 L31.7,5.0499999 C31.7082786,4.67622036 31.5634391,4.31529457 31.2990722,4.0509277 C31.0347053,3.78656084 30.6737795,3.64172127 30.3,3.6499999 L29,3.6499999 L29,20.3499999 L25.6,20.3499999 L25.6,0.249804704 L30.3,0.249804704 C32.8831355,0.22683573 35.0132723,2.26821678 35.1,4.8499999 L35.1,8.0499999 C35.192586,9.73362389 34.489004,11.3629716 33.2,12.4499999 L35.6,20.3499999 Z M73.5,0.2499999 L73.5,11.2499999 L70,0.2499999 L66.5,0.2499999 L66.5,20.3499999 L70,20.3499999 L70,10.5499999 L73.2,20.3499999 L77,20.3499999 L77,0.2499999 L73.5,0.2499999 Z M0,0.5499999 L0,20.6499999 L3.6,20.6499999 L3.6,12.0499999 L6.9,12.0499999 L6.9,8.6499999 L3.6,8.6499999 L3.6,3.9499999 L8.8,3.9499999 L8.8,0.5499999 L0,0.5499999 Z" id="形状"></path>
        </g>
    </g>
</svg>