<?xml version="1.0" encoding="UTF-8"?>
<svg width="601px" height="87px" viewBox="0 0 601 87" version="1.1" xmlns="http://www.w3.org/2000/svg" xmlns:xlink="http://www.w3.org/1999/xlink">
    <title>image2white</title>
    <g id="页面-2" stroke="none" stroke-width="1" fill="none" fill-rule="evenodd">
        <g id="image2white" transform="translate(0.500000, 0.450000)" fill="#FFFFFF" fill-rule="nonzero">
            <polygon id="Fill-1" points="112.1 28.6 168.2 28.6 168.2 0 112.1 0"></polygon>
            <polyline id="Fill-2" points="0 0 0 28.6 28 28.6 28 85.8 56 85.8 56 28.6 84.1 28.6 84.1 0 0 0"></polyline>
            <polyline id="Fill-3" points="84.1 85.8 168.2 85.8 168.2 57.2 112.1 57.2 112.1 28.6 84.1 28.6 84.1 85.8"></polyline>
            <polyline id="Fill-4" points="239.7 21.6 198.5 21.6 198.5 33.5 212.3 33.5 212.3 70.8 225.9 70.8 225.9 33.5 239.7 33.5 239.7 21.6"></polyline>
            <path d="M255.2,33.1 C245.5,33.1 238.3,39.6 238.3,52.4 C238.3,63.7 244.4,71.6 255.5,71.6 C261.3,71.6 266,70.1 270.5,67.4 L265.7,59.3 C262,61.2 259.4,61.9 256.1,61.9 C252.7,61.9 250.3,60.1 249.8,56 L271.5,56 C271.6,55.4 271.6,54.6 271.6,53.5 C271.7,39.8 265.4,33.1 255.2,33.1 Z M250,48.1 C250.4,44.4 252,42.5 254.9,42.5 C258.6,42.5 259.9,44.4 260.5,48.1 L250,48.1 Z" id="Fill-5"></path>
            <path d="M295.7,61.3 C292.3,61.3 290.5,58.3 290.5,52.4 C290.5,46.6 292.1,43.3 295.4,43.3 C298.1,43.3 299.3,44.8 301.1,48.1 L309.8,41.5 C306.6,36.3 302.6,33.1 295.6,33.1 C283.8,33.1 278,40.9 278,52.2 C278,64.6 284.5,71.5 295.3,71.5 C301.8,71.5 305.8,69 310.1,62.7 L302.1,56.4 C299.7,60 298.1,61.3 295.7,61.3" id="Fill-6"></path>
            <path d="M339.3,33.1 C334.9,33.1 332.3,34.6 330,36.3 L330,19.6 L317.3,24.7 L317.3,70.9 L330,70.9 L330,49.8 C330,45.2 331.6,43.9 334.3,43.9 C336.9,43.9 338.5,45.2 338.5,49.9 L338.5,70.9 L351.2,70.9 L351.2,48.3 C351.2,38.6 347.3,33.1 339.3,33.1" id="Fill-7"></path>
            <path d="M381.7,59.7 C375.8,59.7 373.4,53.7 373.4,46.2 C373.4,38.4 375.9,32.7 381.6,32.7 C386.1,32.7 387.8,35.6 389.5,40.2 L401.9,35.3 C398.5,26 393.7,20.8 381.6,20.8 C368.4,20.8 359.1,30.4 359.1,46.2 C359.1,60.8 366.9,71.6 381.5,71.6 C393.2,71.6 398.7,65.3 402,58.9 L390.5,52.8 C387.8,57.4 386,59.7 381.7,59.7" id="Fill-8"></path>
            <path d="M422.4,36.6 L422.4,33.9 L409.7,33.9 L409.7,70.8 L422.4,70.8 L422.4,50.7 C422.4,46.2 424.3,44.7 427.4,44.7 C429.9,44.7 431.7,46 433.3,47.8 L436.3,34.7 C434.8,33.8 433,33.1 430.3,33.1 C427,33.1 424.5,34.5 422.4,36.6" id="Fill-9"></path>
            <path d="M463.4,55 C463.4,59.6 461.8,60.9 459.2,60.9 C456.6,60.9 455,59.6 455,54.9 L455,33.9 L442.3,33.9 L442.3,56.5 C442.3,66.2 446.2,71.6 454.3,71.6 C458.6,71.6 461.3,70.1 463.5,68.4 L463.5,70.9 L476.2,70.9 L476.2,34 L463.5,34 L463.5,55" id="Fill-10"></path>
            <path d="M507.3,33.1 C502.9,33.1 500.3,34.6 498,36.3 L498,33.8 L485.3,33.8 L485.3,70.7 L498,70.7 L498,49.6 C498,45 499.6,43.7 502.3,43.7 C504.9,43.7 506.5,45 506.5,49.7 L506.5,70.7 L519.2,70.7 L519.2,48.1 C519.2,38.6 515.4,33.1 507.3,33.1" id="Fill-11"></path>
            <path d="M544.4,61.3 C541,61.3 539.2,58.3 539.2,52.4 C539.2,46.6 540.8,43.3 544,43.3 C546.7,43.3 547.9,44.8 549.7,48.1 L558.4,41.5 C555.2,36.3 551.2,33.1 544.2,33.1 C532.4,33.1 526.6,40.9 526.6,52.2 C526.6,64.6 533.1,71.5 543.9,71.5 C550.4,71.5 554.4,69 558.7,62.7 L550.7,56.4 C548.5,60 546.8,61.3 544.4,61.3" id="Fill-12"></path>
            <path d="M588,33.1 C583.6,33.1 581,34.6 578.7,36.3 L578.7,19.6 L566,24.7 L566,70.9 L578.7,70.9 L578.7,49.8 C578.7,45.2 580.3,43.9 583,43.9 C585.6,43.9 587.2,45.2 587.2,49.9 L587.2,70.9 L599.9,70.9 L599.9,48.3 C600,38.6 596.1,33.1 588,33.1" id="Fill-13"></path>
        </g>
    </g>
</svg>